<svg width="73" height="74" xmlns="http://www.w3.org/2000/svg" xmlns:xlink="http://www.w3.org/1999/xlink" xml:space="preserve" overflow="hidden"><g transform="translate(-530 -295)"><path d="M30.5779 9.37138C30.2896 9.01267 29.9824 8.66949 29.6578 8.34329 31.3453 4.12876 36.1299 2.08024 40.3445 3.7678 44.559 5.45536 46.6075 10.2399 44.9199 14.4545 43.2324 18.669 38.4478 20.7175 34.2333 19.03 33.9454 18.9147 33.6644 18.7833 33.3914 18.6363 33.4249 18.2561 33.4583 17.8774 33.4583 17.4896 33.4583 17.412 33.4477 17.3375 33.4462 17.2599 33.5496 17.3253 33.6484 17.3999 33.7534 17.4622 37.0972 19.3979 41.3771 18.2563 43.3128 14.9125 45.2484 11.5686 44.1069 7.28872 40.763 5.35306 37.4192 3.4174 33.1393 4.55896 31.2036 7.90281 30.9968 8.2601 30.822 8.63499 30.6813 9.02311 30.6387 9.13717 30.6144 9.25579 30.5779 9.37138ZM31.9694 24.1934C32.0911 24.1858 32.2113 24.1812 32.3344 24.1812L42.1864 24.1812C45.075 24.1857 47.4649 26.43 47.6508 29.3125L48.2925 39.5417 49.5123 39.5417 48.8659 29.238C48.6392 25.714 45.7177 22.9701 42.1864 22.9646L32.3344 22.9646 32.2249 22.9676C32.0174 23.4099 31.7848 23.8399 31.5284 24.2558 31.6759 24.236 31.8204 24.2025 31.9694 24.1934ZM10.7979 17.4896C10.7979 12.114 15.1557 7.75625 20.5312 7.75625 25.9068 7.75625 30.2646 12.114 30.2646 17.4896 30.2646 22.8652 25.9068 27.2229 20.5312 27.2229 20.5307 27.2229 20.5302 27.2229 20.5297 27.2229 15.1566 27.217 10.8023 22.8627 10.7964 17.4896ZM12.0131 17.4896C12.0131 22.1932 15.8261 26.0063 20.5297 26.0063 25.2334 26.0063 29.0464 22.1932 29.0464 17.4896 29.0464 12.786 25.2334 8.97292 20.5297 8.97292 15.8282 8.97795 12.0181 12.788 12.0131 17.4896ZM31.9208 63.1496C31.9191 64.4734 30.8463 65.5462 29.5224 65.5479L11.3713 65.5479C10.0474 65.5462 8.97459 64.4734 8.97292 63.1496L8.97292 59.4646 8.36458 59.4646C7.04001 59.4648 5.96609 58.3911 5.96593 57.0665 5.96592 57.0081 5.96805 56.9496 5.97231 56.8913L7.28479 38.982C7.57006 34.9359 10.9302 31.7961 14.9863 31.7854L25.9089 31.7854C28.2011 31.7954 30.3695 32.8269 31.8234 34.599L32.6797 33.7427C30.9981 31.7421 28.5223 30.5815 25.9089 30.5688L14.9863 30.5688C10.2919 30.5809 6.4026 34.2141 6.07117 38.8968L4.76021 56.8016C4.62389 58.6588 5.9207 60.3157 7.75625 60.6295L7.75625 63.1496C7.75876 65.145 9.37579 66.7621 11.3713 66.7646L29.5239 66.7646C31.2121 66.7612 32.6734 65.5903 33.0447 63.9434 32.6286 63.6276 32.2517 63.263 31.9223 62.8576ZM55.9362 37.4323 61.9268 31.4919 63.4446 29.9848 64.3024 30.8486 63.145 31.9968 58.032 37.0673C60.0383 38.437 61.6431 40.317 62.6811 42.5134 64.0104 44.8037 65.1662 46.7945 67.4672 47.2766L71.0457 43.6753 71.9096 44.533 67.89 48.5785 67.5858 48.5328C66.8856 48.4323 66.2101 48.2028 65.5935 47.8561L63.7229 49.8225 63.7229 54.6101 64.2339 55.0374C65.5184 56.0725 65.7207 57.9528 64.6857 59.2374 64.5089 59.4567 64.3021 59.6499 64.0712 59.8113L54.8519 65.4871C53.5782 66.3778 52.0611 66.8546 50.5069 66.8528 49.3168 66.8525 48.1431 66.575 47.0789 66.0422L46.4843 65.7456 46.1041 66.1274C45.4633 66.7752 44.465 66.9066 43.6783 66.4467L35.0157 61.3747C33.4567 60.4354 32.9544 58.41 33.8937 56.8511 33.9925 56.6872 34.1053 56.5322 34.2309 56.3879L33.0751 55.1439C32.3421 54.3585 31.9538 53.3125 31.9968 52.2391L32.082 49.9989 31.8554 49.6978 31.7185 49.8347C31.3769 50.1744 30.9151 50.3656 30.4334 50.367L30.4243 50.367C29.9395 50.3635 29.4759 50.1683 29.1346 49.824L25.4207 46.0524 26.2876 45.1976 30.003 48.9693C30.1012 49.1057 30.2671 49.1761 30.4334 49.1518 30.5932 49.1506 30.7461 49.0867 30.8592 48.9739L39.8321 40.001C40.0686 39.7646 40.0687 39.3814 39.8324 39.1449 39.8323 39.1449 39.8322 39.1448 39.8321 39.1447L36.0711 35.4111 36.9289 34.5472 40.6884 38.2809C41.4019 38.9892 41.4061 40.1418 40.6978 40.8554 40.6962 40.857 40.6946 40.8586 40.6929 40.8602L40.4755 41.0792 42.1697 42.7704 47.7009 42.7704C47.9632 42.7023 48.23 42.6535 48.4994 42.6244L54.4854 42.0009 58.0365 38.5334C57.6414 38.2382 57.2144 37.9882 56.7636 37.7881ZM36.9258 61.0828 40.9363 57.0754 37.8566 56.061C37.1613 55.875 36.419 56.0434 35.8719 56.5111L35.37 56.937C34.4874 57.6934 34.3851 59.0222 35.1415 59.9049 35.2839 60.071 35.4513 60.2139 35.6377 60.3284ZM40.7842 63.3427 45.5003 58.5779 42.2305 57.5012 38.0117 61.7185ZM48.3838 62.1063C48.8523 61.7235 49.0643 61.1088 48.9313 60.5185 48.8151 59.9549 48.3937 59.5035 47.8393 59.349L46.79 59.0038 41.867 63.9769 44.2928 65.3974C44.6007 65.5747 44.9894 65.5229 45.2402 65.2711ZM52.3319 65.3517 49.5944 62.5671C49.4829 62.7229 49.3555 62.8666 49.2142 62.996L47.3861 64.8362 47.6234 64.9548C49.0854 65.6827 50.7702 65.8247 52.3334 65.3517ZM63.4629 55.9804 54.528 48.5131 48.8492 48.5131C48.4781 48.764 47.4424 49.4758 46.0128 50.5601 45.3448 51.1302 44.5432 51.5216 43.6829 51.6977L43.6814 51.6977C42.413 51.6144 41.1758 51.2684 40.0481 50.6818 39.6205 50.4752 39.3292 50.0633 39.277 49.5913 39.2242 49.1198 39.4207 48.6548 39.7956 48.364L45.3817 43.9855 41.6647 43.9855 39.6131 41.94 32.7238 48.8294 33.3123 49.6157 33.212 52.2832C33.1806 53.0344 33.4518 53.7668 33.9648 54.3166L35.1206 55.5591C35.9784 54.842 37.1348 54.5945 38.2109 54.8975L41.899 56.1127 41.94 56.0716 42.0206 56.1522 48.1952 58.1856C49.1718 58.4631 49.9129 59.261 50.1175 60.2554 50.1916 60.6218 50.1916 60.9993 50.1175 61.3656L53.5485 64.8544C53.7671 64.739 53.9789 64.611 54.1827 64.4712L57.1377 62.6523 51.757 57.1818 52.6239 56.3302 58.1323 61.9268 57.8282 62.2264 60.9869 60.2813 54.8245 54.1067 55.6868 53.2459 62.0515 59.6258 63.402 58.7939C64.1918 58.2148 64.3627 57.1051 63.7836 56.3153 63.6918 56.1901 63.584 56.0775 63.4628 55.9804ZM58.9673 39.3227 55.0298 43.1658 48.6241 43.835C47.812 43.9195 47.0402 44.2315 46.3976 44.7353L40.4876 49.4621C41.4572 50.0482 42.5515 50.3973 43.6814 50.481 44.268 50.294 44.8111 49.9909 45.2783 49.5898 46.273 48.8275 47.2915 48.0967 48.3321 47.3983L48.4842 47.2979 54.969 47.2979 62.5047 53.5942 62.5047 49.3358 64.5944 47.1458C63.3912 45.9779 62.3892 44.6192 61.6287 43.1248 60.9072 41.7496 60.0133 40.4719 58.9688 39.3227ZM31.9375 39.3698 31.9375 39.7135C31.9375 40.4585 32.5415 41.0625 33.2865 41.0625L33.6302 41.0625C34.3752 41.0625 34.9792 40.4585 34.9792 39.7135L34.9792 39.3698C34.9792 38.6248 34.3752 38.0208 33.6302 38.0208L33.2865 38.0208C32.5415 38.0208 31.9375 38.6248 31.9375 39.3698Z" transform="matrix(1 0 0 1.0137 530 295)"/></g></svg>