<svg width="147" height="135" viewBox="0 0 147 135" fill="none" xmlns="http://www.w3.org/2000/svg">
<path d="M135.973 8.42262H11.021C10.1027 8.42262 9.18329 9.26437 9.18329 10.1072V104.436C9.18329 105.447 10.1015 106.121 11.021 106.121H135.973C136.891 106.121 137.81 105.447 137.81 104.436V10.1072C137.81 9.09623 137.074 8.42262 135.973 8.42262ZM134.135 102.752H12.857V11.793H134.135V102.752Z" fill="#0A3C53"/>
<path d="M137.812 0H9.18702C4.04201 0 0 3.70549 0 8.42154V106.118C0 110.835 4.0423 114.54 9.18702 114.54H53.2867V131.384H27.5619C26.6437 131.384 25.7243 132.226 25.7243 133.069C25.7243 134.08 26.6425 134.753 27.5619 134.753H119.438C120.356 134.753 121.276 134.08 121.276 133.069C121.276 132.227 120.357 131.384 119.438 131.384H93.7133V114.54H137.813C142.958 114.54 147 110.834 147 106.118V8.42154C147 3.7063 142.958 0 137.813 0H137.812ZM90.036 131.387H56.9605V114.542H90.036V131.387ZM143.326 106.12C143.326 108.983 140.937 111.173 137.813 111.173H9.18761C6.06375 111.173 3.67463 108.983 3.67463 106.12V8.4229C3.67463 5.72743 6.06369 3.36927 9.18761 3.36927H137.813C140.937 3.36927 143.326 5.7274 143.326 8.4229V106.12Z" fill="#0A3C53"/>
<path d="M73.4953 92.6435H24.2512C23.1483 92.6435 22.4135 91.9698 22.4135 90.9589C22.4135 89.948 23.1483 89.2744 24.2512 89.2744H73.4953C74.5981 89.2744 75.3329 89.948 75.3329 90.9589C75.3329 91.9698 74.4147 92.6435 73.4953 92.6435Z" fill="#0A3C53"/>
<path d="M117.598 23.5824H69.8215C66.6977 23.5824 63.9418 25.0988 62.2874 27.2879C58.0608 24.2562 52.9158 22.4035 47.0358 22.4035C33.4373 22.4035 22.4125 32.5097 22.4125 44.974C22.4125 56.934 44.6466 83.3797 45.5648 84.5573C45.9328 84.8946 46.483 85.2309 47.0344 85.2309C47.5859 85.2309 48.1373 84.8936 48.5041 84.5573C49.0555 84.0518 54.9352 76.9774 60.6316 68.5559V75.7985C60.6316 80.5148 64.6739 84.22 69.8186 84.22H117.595C122.74 84.22 126.782 80.5145 126.782 75.7985V32.0029C126.784 27.2866 122.742 23.5813 117.597 23.5813L117.598 23.5824ZM69.8215 26.9514H91.8723V52.2174H69.8215C70.9244 49.5219 71.6592 46.9957 71.6592 44.9748C71.6592 38.9114 69.0867 33.5205 65.0447 29.4777C65.963 27.9613 67.7994 26.9514 69.8217 26.9514H69.8215ZM62.4708 58.9548C61.9194 59.9658 61.1845 60.9757 60.6331 61.9865C56.2229 69.061 50.7099 76.3047 47.0358 80.6834C40.0531 72.2619 26.0878 53.3958 26.0878 44.974C26.0878 34.3624 35.4594 25.7714 47.0358 25.7714C52.1809 25.7714 57.1425 27.6241 60.8177 30.4877C61.3691 30.9932 61.9205 31.4987 62.472 32.0041C63.2068 32.6777 63.7582 33.3513 64.3096 34.0249C66.6987 37.0566 67.9848 40.9313 67.9848 44.9738C67.9848 46.9946 67.25 49.3539 65.9637 52.2164C65.4123 53.2274 64.8609 54.4064 64.3095 55.5854C64.3095 55.5854 64.3095 55.7536 64.1261 55.7536C63.7569 56.7656 63.0221 57.9446 62.4707 58.9544L62.4708 58.9548ZM64.3085 75.7993V62.9976C65.7781 60.4714 67.2489 57.944 68.3508 55.5859H91.8713V80.8518H69.8206C66.6979 80.8529 64.3088 78.6629 64.3088 75.7993H64.3085ZM123.109 75.7993C123.109 78.6629 120.72 80.8529 117.596 80.8529H95.5453V55.5869H123.108L123.109 75.7993ZM123.109 52.2179H95.5465V26.952H117.597C120.721 26.952 123.11 29.142 123.11 32.0056L123.109 52.2179Z" fill="#0A3C53"/>
<path d="M47.0378 59.9659C38.0342 59.9659 30.6835 53.2277 30.6835 44.9743C30.6835 36.7208 38.0342 29.9826 47.0378 29.9826C48.1407 29.9826 48.8755 30.6562 48.8755 31.6671C48.8755 32.6781 48.1407 33.3517 47.0378 33.3517C40.0551 33.3517 34.3587 38.5734 34.3587 44.9744C34.3587 51.3753 40.0551 56.5971 47.0378 56.5971C48.1407 56.5971 48.8755 57.2707 48.8755 58.2816C48.8755 59.2926 48.1407 59.9662 47.0378 59.9662V59.9659Z" fill="#0A3C53"/>
<path d="M114.657 70.9135H104.367C103.264 70.9135 102.529 70.2399 102.529 69.2289C102.529 68.218 103.264 67.5444 104.367 67.5444H114.657C115.759 67.5444 116.494 68.218 116.494 69.2289C116.494 70.2399 115.576 70.9135 114.657 70.9135Z" fill="#0A3C53"/>
<path d="M114.657 76.6417H104.367C103.264 76.6417 102.529 75.9681 102.529 74.9572C102.529 73.9462 103.264 73.2726 104.367 73.2726H114.657C115.759 73.2726 116.494 73.9462 116.494 74.9572C116.494 75.9681 115.576 76.6417 114.657 76.6417Z" fill="#0A3C53"/>
</svg>
