<svg width="222" height="236" viewBox="0 0 222 236" fill="none" xmlns="http://www.w3.org/2000/svg">
<g clip-path="url(#clip0_105_278)">
<path fill-rule="evenodd" clip-rule="evenodd" d="M125.798 78.878C118.617 78.878 112.773 72.6671 112.773 65.0315C112.773 57.3959 118.615 51.1851 125.798 51.1851C132.981 51.1851 138.823 57.3946 138.823 65.0315C138.823 72.6671 132.978 78.878 125.798 78.878ZM125.798 55.3821C120.794 55.3821 116.72 59.7124 116.72 65.0329C116.72 70.3533 120.793 74.6809 125.798 74.6809C130.803 74.6809 134.876 70.352 134.876 65.0329C134.876 59.7138 130.803 55.3821 125.798 55.3821Z" fill="#0A3C53"/>
<path fill-rule="evenodd" clip-rule="evenodd" d="M99.8207 94.5989C99.2731 94.5989 98.7243 94.3566 98.3366 93.8838C97.618 93.0133 97.6973 91.6885 98.5187 90.922C106.046 83.9053 116.244 79.7147 125.798 79.7147C135.352 79.7147 145.55 83.9053 153.077 90.922C153.896 91.6858 153.978 93.0107 153.259 93.8838C152.541 94.757 151.295 94.8412 150.473 94.0774C143.748 87.8059 134.293 83.9105 125.796 83.9105C117.299 83.9105 107.844 87.8062 101.116 94.0774C100.748 94.4278 100.283 94.599 99.8212 94.599L99.8207 94.5989Z" fill="#0A3C53"/>
<path fill-rule="evenodd" clip-rule="evenodd" d="M125.798 109.086C107.3 109.086 92.2505 93.0875 92.2505 73.423C92.2505 53.7585 107.3 37.76 125.798 37.76C144.296 37.76 159.345 53.7585 159.345 73.423C159.343 93.0879 144.296 109.086 125.798 109.086V109.086ZM125.798 41.9541C109.475 41.9541 96.197 56.0692 96.197 73.4216C96.197 90.7741 109.475 104.889 125.798 104.889C142.121 104.889 155.399 90.7741 155.399 73.4216C155.396 56.0692 142.118 41.9541 125.798 41.9541V41.9541Z" fill="#0A3C53"/>
<path fill-rule="evenodd" clip-rule="evenodd" d="M161.813 125.869H93.7315C92.6401 125.869 91.7593 124.93 91.7593 123.772C91.7593 122.615 92.6426 121.673 93.7315 121.673H161.813C162.904 121.673 163.787 122.612 163.787 123.772C163.787 124.933 162.902 125.869 161.813 125.869V125.869Z" fill="#0A3C53"/>
<path fill-rule="evenodd" clip-rule="evenodd" d="M161.813 138.454H93.7315C92.6401 138.454 91.7593 137.515 91.7593 136.355C91.7593 135.198 92.6426 134.259 93.7315 134.259H161.813C162.904 134.259 163.787 135.198 163.787 136.355C163.787 137.515 162.902 138.454 161.813 138.454V138.454Z" fill="#0A3C53"/>
<path fill-rule="evenodd" clip-rule="evenodd" d="M176.512 188.8H50.8094C49.718 188.8 48.8347 187.861 48.8347 186.701V159.429C48.8347 158.269 49.718 157.332 50.8094 157.332C51.9009 157.332 52.7842 158.271 52.7842 159.429V184.601H176.514C182.282 184.601 186.973 179.614 186.973 173.483V15.3128C186.973 9.18223 182.281 4.19488 176.514 4.19488H52.7842V25.1729C52.7842 26.3332 51.9009 27.2722 50.8094 27.2722C49.718 27.2722 48.8347 26.3332 48.8347 25.1729V2.09852C48.8347 0.938278 49.718 -0.000732422 50.8094 -0.000732422H176.512C184.456 -0.000732422 190.917 6.8699 190.917 15.313V173.487C190.92 181.931 184.456 188.802 176.512 188.802V188.8Z" fill="#0A3C53"/>
<path fill-rule="evenodd" clip-rule="evenodd" d="M50.8094 144.746C49.718 144.746 48.8347 143.807 48.8347 142.646V130.059C48.8347 128.898 49.718 127.959 50.8094 127.959C51.9009 127.959 52.7842 128.897 52.7842 130.059V142.646C52.7842 143.807 51.9009 144.746 50.8094 144.746Z" fill="#0A3C53"/>
<path fill-rule="evenodd" clip-rule="evenodd" d="M50.8094 115.377C49.718 115.377 48.8347 114.438 48.8347 113.28V100.693C48.8347 99.5326 49.718 98.5962 50.8094 98.5962C51.9009 98.5962 52.7842 99.5352 52.7842 100.693V113.28C52.7842 114.438 51.9009 115.377 50.8094 115.377Z" fill="#0A3C53"/>
<path fill-rule="evenodd" clip-rule="evenodd" d="M50.8094 86.0085C49.718 86.0085 48.8347 85.0709 48.8347 83.9093V71.3217C48.8347 70.1615 49.718 69.2225 50.8094 69.2225C51.9009 69.2225 52.7842 70.1601 52.7842 71.3217V83.9093C52.7842 85.0695 51.9009 86.0085 50.8094 86.0085V86.0085Z" fill="#0A3C53"/>
<path fill-rule="evenodd" clip-rule="evenodd" d="M50.8094 56.64C49.718 56.64 48.8347 55.701 48.8347 54.5434V41.9572C48.8347 40.7995 49.718 39.8605 50.8094 39.8605C51.9009 39.8605 52.7842 40.7995 52.7842 41.9572V54.5434C52.7842 55.6984 51.9009 56.64 50.8094 56.64Z" fill="#0A3C53"/>
<path fill-rule="evenodd" clip-rule="evenodd" d="M60.6789 44.0511H40.9454C35.5057 44.0511 31.0781 39.3443 31.0781 33.5616C31.0781 27.7789 35.5032 23.0721 40.9454 23.0721L60.6789 23.0734C66.1186 23.0734 70.5462 27.7776 70.5462 33.5629C70.5437 39.3456 66.1186 44.0525 60.6789 44.0525V44.0511ZM40.9431 27.2705C37.6788 27.2705 35.0214 30.0915 35.0214 33.5657C35.0214 37.0359 37.675 39.8594 40.9431 39.8594L60.6767 39.8581C63.9411 39.8581 66.5984 37.0345 66.5984 33.563C66.5984 30.0928 63.9423 27.2679 60.6767 27.2679L40.9431 27.2692V27.2705Z" fill="#0A3C53"/>
<path fill-rule="evenodd" clip-rule="evenodd" d="M60.6789 73.4196H40.9454C35.5057 73.4196 31.0781 68.7155 31.0781 62.9301C31.0781 57.1474 35.5032 52.4406 40.9454 52.4406L60.6789 52.4419C66.1186 52.4419 70.5462 57.1487 70.5462 62.9314C70.5437 68.7168 66.1186 73.4209 60.6789 73.4209V73.4196ZM40.9431 56.6376C37.6788 56.6376 35.0214 59.4625 35.0214 62.9328C35.0214 66.403 37.675 69.2279 40.9431 69.2279H60.6767C63.9411 69.2279 66.5984 66.403 66.5984 62.9328C66.5984 59.4625 63.9423 56.6376 60.6767 56.6376H40.9431Z" fill="#0A3C53"/>
<path fill-rule="evenodd" clip-rule="evenodd" d="M60.6789 102.791H40.9454C35.5057 102.791 31.0781 98.0846 31.0781 92.302C31.0781 86.5193 35.5032 81.8124 40.9454 81.8124L60.6789 81.8138C66.1186 81.8138 70.5462 86.5179 70.5462 92.3033C70.5437 98.0886 66.1186 102.793 60.6789 102.793V102.791ZM40.9431 86.0095C37.6788 86.0095 35.0214 88.8305 35.0214 92.3047C35.0214 95.7749 37.675 98.5998 40.9431 98.5998H60.6767C63.9411 98.5998 66.5984 95.7762 66.5984 92.3047C66.5984 88.8344 63.9423 86.0095 60.6767 86.0095H40.9431Z" fill="#0A3C53"/>
<path fill-rule="evenodd" clip-rule="evenodd" d="M60.6789 132.16H40.9454C35.5057 132.16 31.0781 127.456 31.0781 121.67C31.0781 115.888 35.5032 111.181 40.9454 111.181H60.6789C66.1186 111.181 70.5462 115.888 70.5462 121.67C70.5437 127.456 66.1186 132.16 60.6789 132.16V132.16ZM40.9431 115.378C37.6788 115.378 35.0214 118.203 35.0214 121.673C35.0214 125.143 37.675 127.968 40.9431 127.968H60.6767C63.9411 127.968 66.5984 125.147 66.5984 121.673C66.5984 118.203 63.9423 115.378 60.6767 115.378H40.9431Z" fill="#0A3C53"/>
<path fill-rule="evenodd" clip-rule="evenodd" d="M60.6789 161.529H40.9454C35.5057 161.529 31.0781 156.822 31.0781 151.039C31.0781 145.256 35.5032 140.549 40.9454 140.549H60.6789C66.1186 140.549 70.5462 145.254 70.5462 151.039C70.5437 156.822 66.1186 161.529 60.6789 161.529V161.529ZM40.9431 144.744C37.6788 144.744 35.0214 147.565 35.0214 151.039C35.0214 154.509 37.675 157.334 40.9431 157.334H60.6767C63.9411 157.334 66.5984 154.511 66.5984 151.039C66.5984 147.569 63.9423 144.744 60.6767 144.744H40.9431Z" fill="#0A3C53"/>
<path fill-rule="evenodd" clip-rule="evenodd" d="M188.944 29.3682H92.2505C91.1591 29.3682 90.2758 28.4292 90.2758 27.2716C90.2758 26.1113 91.1591 25.1723 92.2505 25.1723H188.944C190.036 25.1723 190.919 26.1113 190.919 27.2716C190.919 28.4279 190.033 29.3682 188.944 29.3682Z" fill="#0A3C53"/>
<path fill-rule="evenodd" clip-rule="evenodd" d="M188.944 163.629H92.2505C91.1591 163.629 90.2758 162.69 90.2758 161.532C90.2758 160.372 91.1591 159.433 92.2505 159.433H188.944C190.036 159.433 190.919 160.372 190.919 161.532C190.919 162.689 190.033 163.629 188.944 163.629Z" fill="#0A3C53"/>
</g>
<defs>
<clipPath id="clip0_105_278">
<rect width="222" height="236" fill="white"/>
</clipPath>
</defs>
</svg>
