<svg width="198" height="225" viewBox="0 0 198 225" fill="none" xmlns="http://www.w3.org/2000/svg">
<path fill-rule="evenodd" clip-rule="evenodd" d="M117.264 93.9182C108.402 93.9182 101.188 86.5231 101.188 77.4316C101.188 68.34 108.399 60.9449 117.264 60.9449C126.129 60.9449 133.34 68.3384 133.34 77.4316C133.34 86.5231 126.126 93.9182 117.264 93.9182ZM117.264 65.9423C111.089 65.9423 106.059 71.0982 106.059 77.4332C106.059 83.7681 111.087 88.9208 117.264 88.9208C123.441 88.9208 128.469 83.7665 128.469 77.4332C128.469 71.0998 123.441 65.9423 117.264 65.9423Z" fill="#0A3C53"/>
<path fill-rule="evenodd" clip-rule="evenodd" d="M85.2021 112.637C84.5263 112.637 83.849 112.348 83.3704 111.785C82.4836 110.749 82.5814 109.171 83.5951 108.259C92.8853 99.9042 105.472 94.9144 117.264 94.9144C129.056 94.9144 141.643 99.9042 150.933 108.259C151.944 109.168 152.045 110.746 151.158 111.785C150.271 112.825 148.733 112.925 147.719 112.016C139.418 104.548 127.749 99.9104 117.262 99.9104C106.774 99.9104 95.1047 104.549 86.8005 112.016C86.3464 112.433 85.773 112.637 85.2027 112.637L85.2021 112.637Z" fill="#0A3C53"/>
<path fill-rule="evenodd" clip-rule="evenodd" d="M117.264 129.886C94.4328 129.886 75.8588 110.837 75.8588 87.4231C75.8588 64.009 94.4332 44.96 117.264 44.96C140.095 44.96 158.669 64.009 158.669 87.4231C158.666 110.838 140.095 129.886 117.264 129.886V129.886ZM117.264 49.9538C97.1176 49.9538 80.7297 66.7604 80.7297 87.4215C80.7297 108.083 97.1176 124.889 117.264 124.889C137.411 124.889 153.798 108.083 153.798 87.4215C153.795 66.7604 137.407 49.9538 117.264 49.9538V49.9538Z" fill="#0A3C53"/>
<path fill-rule="evenodd" clip-rule="evenodd" d="M161.715 149.869H77.6867C76.3396 149.869 75.2525 148.751 75.2525 147.373C75.2525 145.995 76.3427 144.873 77.6867 144.873H161.715C163.062 144.873 164.152 145.991 164.152 147.373C164.152 148.754 163.059 149.869 161.715 149.869V149.869Z" fill="#0A3C53"/>
<path fill-rule="evenodd" clip-rule="evenodd" d="M161.715 164.855H77.6867C76.3396 164.855 75.2525 163.737 75.2525 162.355C75.2525 160.977 76.3427 159.859 77.6867 159.859H161.715C163.062 159.859 164.152 160.977 164.152 162.355C164.152 163.737 163.059 164.855 161.715 164.855V164.855Z" fill="#0A3C53"/>
<path fill-rule="evenodd" clip-rule="evenodd" d="M179.857 224.8H24.7108C23.3637 224.8 22.2735 223.682 22.2735 222.3V189.829C22.2735 188.447 23.3637 187.332 24.7108 187.332C26.0578 187.332 27.148 188.45 27.148 189.829V219.801H179.86C186.979 219.801 192.768 213.862 192.768 206.563V18.2326C192.768 10.9331 186.978 4.99473 179.86 4.99473H27.148V29.9728C27.148 31.3543 26.0578 32.4724 24.7108 32.4724C23.3637 32.4724 22.2735 31.3543 22.2735 29.9728V2.49865C22.2735 1.11717 23.3637 -0.00088501 24.7108 -0.00088501H179.857C189.662 -0.00088501 197.637 8.17983 197.637 18.2328V206.567C197.64 216.622 189.662 224.802 179.857 224.802V224.8Z" fill="#0A3C53"/>
<path fill-rule="evenodd" clip-rule="evenodd" d="M24.7108 172.345C23.3637 172.345 22.2735 171.227 22.2735 169.846V154.858C22.2735 153.477 23.3637 152.359 24.7108 152.359C26.0578 152.359 27.148 153.475 27.148 154.858V169.846C27.148 171.227 26.0578 172.345 24.7108 172.345Z" fill="#0A3C53"/>
<path fill-rule="evenodd" clip-rule="evenodd" d="M24.7108 137.377C23.3637 137.377 22.2735 136.259 22.2735 134.88V119.893C22.2735 118.511 23.3637 117.396 24.7108 117.396C26.0578 117.396 27.148 118.514 27.148 119.893V134.88C27.148 136.259 26.0578 137.377 24.7108 137.377Z" fill="#0A3C53"/>
<path fill-rule="evenodd" clip-rule="evenodd" d="M24.7108 102.408C23.3637 102.408 22.2735 101.292 22.2735 99.9089V84.9212C22.2735 83.5397 23.3637 82.4216 24.7108 82.4216C26.0578 82.4216 27.148 83.5381 27.148 84.9212V99.9089C27.148 101.29 26.0578 102.408 24.7108 102.408V102.408Z" fill="#0A3C53"/>
<path fill-rule="evenodd" clip-rule="evenodd" d="M24.7108 67.44C23.3637 67.44 22.2735 66.3219 22.2735 64.9436V49.9575C22.2735 48.5791 23.3637 47.4611 24.7108 47.4611C26.0578 47.4611 27.148 48.5791 27.148 49.9575V64.9436C27.148 66.3188 26.0578 67.44 24.7108 67.44Z" fill="#0A3C53"/>
<path fill-rule="evenodd" clip-rule="evenodd" d="M36.892 52.4507H12.5362C5.82238 52.4507 0.357651 46.8463 0.357651 39.961C0.357651 33.0757 5.81925 27.4714 12.5362 27.4714L36.892 27.4729C43.6058 27.4729 49.0705 33.0741 49.0705 39.9626C49.0675 46.8479 43.6058 52.4522 36.892 52.4522V52.4507ZM12.5334 32.4704C8.50445 32.4704 5.22467 35.8292 5.22467 39.9658C5.22467 44.0977 8.49984 47.4597 12.5334 47.4597L36.8893 47.4581C40.9183 47.4581 44.198 44.0962 44.198 39.9627C44.198 35.8308 40.9198 32.4672 36.8893 32.4672L12.5334 32.4688V32.4704Z" fill="#0A3C53"/>
<path fill-rule="evenodd" clip-rule="evenodd" d="M36.892 87.4191H12.5362C5.82238 87.4191 0.357651 81.818 0.357651 74.9295C0.357651 68.0442 5.81925 62.4398 12.5362 62.4398L36.892 62.4414C43.6058 62.4414 49.0705 68.0457 49.0705 74.931C49.0675 81.8196 43.6058 87.4207 36.892 87.4207V87.4191ZM12.5334 67.4372C8.50445 67.4372 5.22467 70.8007 5.22467 74.9327C5.22467 79.0646 8.49984 82.4282 12.5334 82.4282H36.8893C40.9183 82.4282 44.198 79.0646 44.198 74.9327C44.198 70.8007 40.9198 67.4372 36.8893 67.4372H12.5334Z" fill="#0A3C53"/>
<path fill-rule="evenodd" clip-rule="evenodd" d="M36.892 122.392H12.5362C5.82238 122.392 0.357651 116.787 0.357651 109.902C0.357651 103.017 5.81925 97.4123 12.5362 97.4123L36.892 97.4139C43.6058 97.4139 49.0705 103.015 49.0705 109.904C49.0675 116.792 43.6058 122.393 36.892 122.393V122.392ZM12.5334 102.41C8.50445 102.41 5.22467 105.769 5.22467 109.905C5.22467 114.037 8.49984 117.401 12.5334 117.401H36.8893C40.9183 117.401 44.198 114.039 44.198 109.905C44.198 105.773 40.9198 102.41 36.8893 102.41H12.5334Z" fill="#0A3C53"/>
<path fill-rule="evenodd" clip-rule="evenodd" d="M36.892 157.36H12.5362C5.82238 157.36 0.357651 151.759 0.357651 144.87C0.357651 137.985 5.81925 132.381 12.5362 132.381H36.892C43.6058 132.381 49.0705 137.985 49.0705 144.87C49.0675 151.759 43.6058 157.36 36.892 157.36V157.36ZM12.5334 137.378C8.50445 137.378 5.22467 140.742 5.22467 144.874C5.22467 149.006 8.49984 152.369 12.5334 152.369H36.8893C40.9183 152.369 44.198 149.01 44.198 144.874C44.198 140.742 40.9198 137.378 36.8893 137.378H12.5334Z" fill="#0A3C53"/>
<path fill-rule="evenodd" clip-rule="evenodd" d="M36.892 192.328H12.5362C5.82238 192.328 0.357651 186.724 0.357651 179.839C0.357651 172.954 5.81925 167.349 12.5362 167.349H36.892C43.6058 167.349 49.0705 172.95 49.0705 179.839C49.0675 186.724 43.6058 192.328 36.892 192.328V192.328ZM12.5334 172.343C8.50445 172.343 5.22467 175.702 5.22467 179.839C5.22467 183.971 8.49984 187.334 12.5334 187.334H36.8893C40.9183 187.334 44.198 183.972 44.198 179.839C44.198 175.707 40.9198 172.343 36.8893 172.343H12.5334Z" fill="#0A3C53"/>
<path fill-rule="evenodd" clip-rule="evenodd" d="M195.201 34.968H75.8587C74.5117 34.968 73.4215 33.85 73.4215 32.4716C73.4215 31.0902 74.5117 29.9721 75.8587 29.9721H195.201C196.548 29.9721 197.639 31.0902 197.639 32.4716C197.639 33.8484 196.545 34.968 195.201 34.968Z" fill="#0A3C53"/>
<path fill-rule="evenodd" clip-rule="evenodd" d="M195.201 194.829H75.8587C74.5117 194.829 73.4215 193.711 73.4215 192.333C73.4215 190.951 74.5117 189.833 75.8587 189.833H195.201C196.548 189.833 197.639 190.951 197.639 192.333C197.639 193.71 196.545 194.829 195.201 194.829Z" fill="#0A3C53"/>
</svg>
