<svg width="117" height="149" viewBox="0 0 117 149" fill="none" xmlns="http://www.w3.org/2000/svg">
<path d="M113.954 148.999H3.0551C1.36777 148.999 0.00127829 147.86 0.00127829 146.468L0 2.5314C0 1.13273 1.3665 0 3.05382 0H113.946C115.633 0 117 1.13273 117 2.5314V146.462C117.009 147.861 115.633 149 113.954 149L113.954 148.999ZM6.10826 143.929H110.891V5.06253H6.10826V143.929Z" fill="#0A3C53"/>
<path d="M90.962 16.1186H20.9814C19.294 16.1186 17.9276 14.9859 17.9276 13.5872C17.9276 12.1885 19.294 11.0558 20.9814 11.0558H90.962C92.6493 11.0558 94.0158 12.1885 94.0158 13.5872C94.0158 14.9859 92.6493 16.1186 90.962 16.1186Z" fill="#0A3C53"/>
<path d="M90.962 28.7764H20.9814C19.294 28.7764 17.9276 27.6436 17.9276 26.245C17.9276 24.8463 19.294 23.7136 20.9814 23.7136H90.962C92.6493 23.7136 94.0158 24.8463 94.0158 26.245C94.0158 27.6426 92.6493 28.7764 90.962 28.7764V28.7764Z" fill="#0A3C53"/>
<path d="M90.962 41.4362H20.9814C19.294 41.4362 17.9276 40.3034 17.9276 38.9048C17.9276 37.5061 19.294 36.3734 20.9814 36.3734H90.962C92.6493 36.3734 94.0158 37.5061 94.0158 38.9048C94.0158 40.3034 92.6493 41.4362 90.962 41.4362Z" fill="#0A3C53"/>
<path d="M43.872 89.4629H20.9805C19.2931 89.4629 17.9266 88.3238 17.9266 86.9315V67.9622C17.9266 66.5635 19.2931 65.4308 20.9805 65.4308H43.872C45.5593 65.4308 46.9258 66.5635 46.9258 67.9622V86.9315C46.9258 88.3301 45.5593 89.4629 43.872 89.4629ZM24.0343 84.3927H40.8169V70.4939H24.0343V84.3927Z" fill="#0A3C53"/>
<path d="M43.872 114.782H20.9805C19.2931 114.782 17.9266 113.643 17.9266 112.251V93.2881C17.9266 91.8894 19.2931 90.7567 20.9805 90.7567H43.872C45.5593 90.7567 46.9258 91.8958 46.9258 93.2881V112.251C46.9258 113.65 45.5593 114.782 43.872 114.782ZM24.0343 109.713H40.8169V95.8203L24.0343 95.8193V109.713Z" fill="#0A3C53"/>
<path d="M74.4134 89.4629H51.5218C49.8345 89.4629 48.468 88.3238 48.468 86.9315V67.9622C48.468 66.5635 49.8345 65.4308 51.5218 65.4308H74.4134C76.1007 65.4308 77.4672 66.5635 77.4672 67.9622V86.9315C77.4685 88.3301 76.102 89.4629 74.4134 89.4629ZM54.577 84.3927H71.3596V70.4939H54.577V84.3927Z" fill="#0A3C53"/>
<path d="M74.4134 114.782H51.5218C49.8345 114.782 48.468 113.643 48.468 112.251V93.2881C48.468 91.8894 49.8345 90.7567 51.5218 90.7567H74.4134C76.1007 90.7567 77.4672 91.8958 77.4672 93.2881V112.251C77.4685 113.65 76.102 114.782 74.4134 114.782ZM54.577 109.713H71.3596V95.8203H54.577V109.713Z" fill="#0A3C53"/>
<path d="M94.9249 114.782C90.4508 114.782 86.8076 112.054 86.8076 108.713V86.4399C86.8076 83.0914 90.457 80.3704 94.9249 80.3704C99.3911 80.3704 103.042 83.0925 103.042 86.4399V108.713C103.041 112.061 99.3914 114.782 94.9249 114.782ZM94.9249 85.44C93.7949 85.44 92.9167 85.9783 92.9167 86.4466V108.72C92.9167 109.182 93.7872 109.72 94.9249 109.72C96.0625 109.72 96.933 109.182 96.933 108.72V86.4466C96.9254 85.9719 96.0549 85.44 94.9249 85.44Z" fill="#0A3C53"/>
<path d="M94.9249 79.2173C90.336 79.2173 86.6018 76.1284 86.6018 72.3245C86.6018 68.5207 90.3356 65.4318 94.9249 65.4318C99.5138 65.4318 103.248 68.5207 103.248 72.3245C103.248 76.1284 99.5062 79.2173 94.9249 79.2173ZM94.9249 70.4957C93.7105 70.4957 92.7185 71.319 92.7185 72.3246C92.7185 73.3312 93.7118 74.1535 94.9249 74.1535C96.1392 74.1535 97.1312 73.3302 97.1312 72.3246C97.1312 71.318 96.1393 70.4957 94.9249 70.4957Z" fill="#0A3C53"/>
</svg>
