<svg width="148" height="194" viewBox="0 0 148 194" fill="none" xmlns="http://www.w3.org/2000/svg">
<path d="M144.057 193.831H3.86215C1.72909 193.831 0.00161597 192.349 0.00161597 190.538L0 3.29307C0 1.47355 1.72748 0 3.86054 0H144.047C146.18 0 147.908 1.47355 147.908 3.29307V190.531C147.919 192.35 146.18 193.832 144.057 193.832L144.057 193.831ZM7.72186 187.235H140.185V6.58579H7.72186V187.235Z" fill="black"/>
<path d="M114.991 20.9685H26.524C24.3909 20.9685 22.6635 19.4949 22.6635 17.6754C22.6635 15.8559 24.3909 14.3823 26.524 14.3823H114.991C117.124 14.3823 118.852 15.8559 118.852 17.6754C118.852 19.4949 117.124 20.9685 114.991 20.9685Z" fill="black"/>
<path d="M114.991 37.4348H26.524C24.3909 37.4348 22.6635 35.9613 22.6635 34.1418C22.6635 32.3222 24.3909 30.8487 26.524 30.8487H114.991C117.124 30.8487 118.852 32.3222 118.852 34.1418C118.852 35.9599 117.124 37.4348 114.991 37.4348V37.4348Z" fill="black"/>
<path d="M114.991 53.9038H26.524C24.3909 53.9038 22.6635 52.4302 22.6635 50.6107C22.6635 48.7912 24.3909 47.3176 26.524 47.3176H114.991C117.124 47.3176 118.852 48.7912 118.852 50.6107C118.852 52.4302 117.124 53.9038 114.991 53.9038Z" fill="black"/>
<path d="M55.4615 116.381H26.5228C24.3897 116.381 22.6622 114.899 22.6622 113.088V88.4111C22.6622 86.5916 24.3897 85.118 26.5228 85.118H55.4615C57.5946 85.118 59.322 86.5916 59.322 88.4111V113.088C59.322 114.908 57.5946 116.381 55.4615 116.381ZM30.3833 109.785H51.5993V91.7045H30.3833V109.785Z" fill="black"/>
<path d="M55.4615 149.319H26.5228C24.3897 149.319 22.6622 147.837 22.6622 146.026V121.357C22.6622 119.538 24.3897 118.064 26.5228 118.064H55.4615C57.5946 118.064 59.322 119.546 59.322 121.357V146.026C59.322 147.845 57.5946 149.319 55.4615 149.319ZM30.3833 142.724H51.5993V124.651L30.3833 124.65V142.724Z" fill="black"/>
<path d="M94.071 116.381H65.1322C62.9991 116.381 61.2717 114.899 61.2717 113.088V88.4111C61.2717 86.5916 62.9991 85.118 65.1322 85.118H94.071C96.204 85.118 97.9315 86.5916 97.9315 88.4111V113.088C97.9331 114.908 96.2056 116.381 94.071 116.381ZM68.9944 109.785H90.2104V91.7045H68.9944V109.785Z" fill="black"/>
<path d="M94.071 149.319H65.1322C62.9991 149.319 61.2717 147.837 61.2717 146.026V121.357C61.2717 119.538 62.9991 118.064 65.1322 118.064H94.071C96.204 118.064 97.9315 119.546 97.9315 121.357V146.026C97.9331 147.845 96.2056 149.319 94.071 149.319ZM68.9944 142.724H90.2104V124.651H68.9944V142.724Z" fill="black"/>
<path d="M120.001 149.319C114.345 149.319 109.739 145.769 109.739 141.423V112.449C109.739 108.093 114.353 104.553 120.001 104.553C125.647 104.553 130.262 108.094 130.262 112.449V141.423C130.261 145.779 125.647 149.319 120.001 149.319ZM120.001 111.148C118.572 111.148 117.462 111.848 117.462 112.457V141.432C117.462 142.033 118.563 142.733 120.001 142.733C121.439 142.733 122.54 142.033 122.54 141.432V112.457C122.53 111.84 121.429 111.148 120.001 111.148Z" fill="black"/>
<path d="M120.001 103.053C114.2 103.053 109.479 99.0345 109.479 94.0861C109.479 89.1377 114.199 85.1194 120.001 85.1194C125.802 85.1194 130.523 89.1377 130.523 94.0861C130.523 99.0345 125.793 103.053 120.001 103.053ZM120.001 91.707C118.466 91.707 117.212 92.778 117.212 94.0862C117.212 95.3957 118.467 96.4653 120.001 96.4653C121.536 96.4653 122.79 95.3943 122.79 94.0862C122.79 92.7767 121.536 91.707 120.001 91.707Z" fill="black"/>
</svg>
