<svg width="150" height="153" viewBox="0 0 116 141" fill="none" xmlns="http://www.w3.org/2000/svg">
<path d="M112.862 140.089H3.91057C2.25287 140.089 0.910374 139.024 0.910374 137.723L0.909119 3.19288C0.909119 1.88561 2.25162 0.826904 3.90931 0.826904H112.854C114.512 0.826904 115.855 1.88561 115.855 3.19288V137.718C115.863 139.025 114.512 140.09 112.862 140.09L112.862 140.089ZM6.91011 135.35H109.853V5.5586H6.91011V135.35Z" fill="#0A3C53"/>
<path d="M90.2737 15.8922H21.522C19.8643 15.8922 18.5219 14.8335 18.5219 13.5262C18.5219 12.2189 19.8643 11.1602 21.522 11.1602H90.2737C91.9314 11.1602 93.2739 12.2189 93.2739 13.5262C93.2739 14.8335 91.9314 15.8922 90.2737 15.8922Z" fill="#0A3C53"/>
<path d="M90.2737 27.7227H21.522C19.8643 27.7227 18.5219 26.664 18.5219 25.3568C18.5219 24.0495 19.8643 22.9908 21.522 22.9908H90.2737C91.9314 22.9908 93.2739 24.0495 93.2739 25.3568C93.2739 26.663 91.9314 27.7227 90.2737 27.7227V27.7227Z" fill="#0A3C53"/>
<path d="M90.2737 39.5552H21.522C19.8643 39.5552 18.5219 38.4965 18.5219 37.1892C18.5219 35.8819 19.8643 34.8232 21.522 34.8232H90.2737C91.9314 34.8232 93.2739 35.8819 93.2739 37.1892C93.2739 38.4965 91.9314 39.5552 90.2737 39.5552Z" fill="#0A3C53"/>
<path d="M44.0107 84.4433H21.5211C19.8634 84.4433 18.5209 83.3787 18.5209 82.0774V64.3477C18.5209 63.0405 19.8634 61.9818 21.5211 61.9818H44.0107C45.6684 61.9818 47.0109 63.0405 47.0109 64.3477V82.0774C47.0109 83.3846 45.6684 84.4433 44.0107 84.4433ZM24.5213 79.7045H41.0092V66.714H24.5213V79.7045Z" fill="#0A3C53"/>
<path d="M44.0107 108.108H21.5211C19.8634 108.108 18.5209 107.043 18.5209 105.742V88.0186C18.5209 86.7114 19.8634 85.6526 21.5211 85.6526H44.0107C45.6684 85.6526 47.0109 86.7173 47.0109 88.0186V105.742C47.0109 107.049 45.6684 108.108 44.0107 108.108ZM24.5213 103.37H41.0092V90.3854L24.5213 90.3844V103.37Z" fill="#0A3C53"/>
<path d="M74.0158 84.4433H51.5262C49.8685 84.4433 48.526 83.3787 48.526 82.0774V64.3477C48.526 63.0405 49.8685 61.9818 51.5262 61.9818H74.0158C75.6735 61.9818 77.016 63.0405 77.016 64.3477V82.0774C77.0172 83.3846 75.6747 84.4433 74.0158 84.4433ZM54.5277 79.7045H71.0156V66.714H54.5277V79.7045Z" fill="#0A3C53"/>
<path d="M74.0158 108.108H51.5262C49.8685 108.108 48.526 107.043 48.526 105.742V88.0186C48.526 86.7114 49.8685 85.6526 51.5262 85.6526H74.0158C75.6735 85.6526 77.016 86.7173 77.016 88.0186V105.742C77.0172 107.049 75.6747 108.108 74.0158 108.108ZM54.5277 103.37H71.0156V90.3854H54.5277V103.37Z" fill="#0A3C53"/>
<path d="M94.1671 108.108C89.7716 108.108 86.1924 105.558 86.1924 102.435V81.6179C86.1924 78.4883 89.7777 75.9451 94.1671 75.9451C98.5549 75.9451 102.142 78.4893 102.142 81.6179V102.435C102.141 105.565 98.5552 108.108 94.1671 108.108ZM94.1671 80.6834C93.0569 80.6834 92.1942 81.1865 92.1942 81.6242V102.442C92.1942 102.873 93.0494 103.377 94.1671 103.377C95.2848 103.377 96.14 102.873 96.14 102.442V81.6242C96.1325 81.1805 95.2772 80.6834 94.1671 80.6834Z" fill="#0A3C53"/>
<path d="M94.1671 74.8673C89.6588 74.8673 85.9902 71.9803 85.9902 68.425C85.9902 64.8697 89.6584 61.9827 94.1671 61.9827C98.6754 61.9827 102.344 64.8697 102.344 68.425C102.344 71.9803 98.668 74.8673 94.1671 74.8673ZM94.1671 66.7157C92.974 66.7157 91.9995 67.4852 91.9995 68.4251C91.9995 69.3659 92.9753 70.1344 94.1671 70.1344C95.3601 70.1344 96.3347 69.3649 96.3347 68.4251C96.3347 67.4842 95.3602 66.7157 94.1671 66.7157Z" fill="#0A3C53"/>
</svg>
