<svg width="149" height="157" viewBox="0 0 149 157" fill="none" xmlns="http://www.w3.org/2000/svg">
<path d="M146.25 -0.000100703H18.125C16.7099 -0.000100703 15.5625 1.09694 15.5625 2.4499V17.1499H7.875C5.83645 17.1499 3.88013 17.9243 2.43898 19.3024C0.997834 20.6805 0.187645 22.551 0.187645 24.4997V29.3997C0.187645 31.3488 0.997571 33.2192 2.43898 34.5971C3.8804 35.975 5.83671 36.7496 7.875 36.7496H15.5625V51.4496H7.875C5.83645 51.4496 3.88013 52.224 2.43898 53.6021C0.997834 54.9802 0.187645 56.8507 0.187645 58.7995V63.6995C0.187645 65.6485 0.997571 67.5189 2.43898 68.8968C3.8804 70.2747 5.83671 71.0493 7.875 71.0493H15.5625V85.7493H7.875C5.83645 85.7493 3.88013 86.5237 2.43898 87.9018C0.997834 89.2799 0.187645 91.1504 0.187645 93.0992V97.9992C0.187645 99.9482 0.997571 101.819 2.43898 103.197C3.8804 104.574 5.83671 105.349 7.875 105.349H15.5625V120.049H7.875C5.83645 120.049 3.88013 120.823 2.43898 122.202C0.997834 123.58 0.187645 125.45 0.187645 127.399V132.299C0.187645 134.248 0.997571 136.118 2.43898 137.496C3.8804 138.874 5.83671 139.649 7.875 139.649H15.5625V154.349C15.5625 154.998 15.8325 155.622 16.3129 156.081C16.7934 156.541 17.4455 156.799 18.125 156.799H146.25C146.929 156.799 147.582 156.541 148.062 156.081C148.542 155.622 148.812 154.998 148.812 154.349V2.44878C148.812 1.79909 148.542 1.17565 148.062 0.716279C147.582 0.256911 146.929 -0.0012207 146.25 -0.0012207V-0.000100703ZM5.3125 29.3999V24.4999C5.3125 23.1469 6.45991 22.0499 7.875 22.0499H28.375C29.0545 22.0499 29.7066 22.308 30.187 22.7674C30.6675 23.2268 30.9375 23.8502 30.9375 24.4999V29.3999C30.9375 30.0496 30.6675 30.673 30.187 31.1324C29.7066 31.5918 29.0545 31.8499 28.375 31.8499H7.875C6.45991 31.8499 5.3125 30.7528 5.3125 29.3999ZM5.3125 63.6999V58.7999C5.3125 57.4469 6.45991 56.3499 7.875 56.3499H28.375C29.0545 56.3499 29.7066 56.608 30.187 57.0674C30.6675 57.5268 30.9375 58.1502 30.9375 58.7999V63.6999C30.9375 64.3496 30.6675 64.973 30.187 65.4324C29.7066 65.8917 29.0545 66.1499 28.375 66.1499H7.875C6.45991 66.1499 5.3125 65.0528 5.3125 63.6999ZM5.3125 97.9999V93.0999C5.3125 91.7469 6.45991 90.6499 7.875 90.6499H28.375C29.0545 90.6499 29.7066 90.908 30.187 91.3674C30.6675 91.8267 30.9375 92.4502 30.9375 93.0999V97.9999C30.9375 98.6496 30.6675 99.273 30.187 99.7324C29.7066 100.192 29.0545 100.45 28.375 100.45H7.875C6.45991 100.45 5.3125 99.3528 5.3125 97.9999ZM5.3125 132.3V127.4C5.3125 126.047 6.45991 124.95 7.875 124.95H28.375C29.0545 124.95 29.7066 125.208 30.187 125.667C30.6675 126.127 30.9375 126.75 30.9375 127.4V132.3C30.9375 132.95 30.6675 133.573 30.187 134.032C29.7066 134.492 29.0545 134.75 28.375 134.75H7.875C6.45991 134.75 5.3125 133.653 5.3125 132.3ZM143.687 151.9H20.6875V139.65H28.375C30.4135 139.65 32.3699 138.875 33.811 137.497C35.2522 136.119 36.0623 134.249 36.0623 132.3V127.4C36.0623 125.451 35.2524 123.581 33.811 122.203C32.3696 120.825 30.4133 120.05 28.375 120.05H20.6875V105.35H28.375C30.4135 105.35 32.3699 104.576 33.811 103.198C35.2522 101.82 36.0623 99.9491 36.0623 98.0003V93.1003C36.0623 91.1512 35.2524 89.2808 33.811 87.9029C32.3696 86.5251 30.4133 85.7504 28.375 85.7504H20.6875V71.0504H28.375C30.4135 71.0504 32.3699 70.2761 33.811 68.8979C35.2522 67.5198 36.0623 65.6494 36.0623 63.7006V58.8006C36.0623 56.8515 35.2524 54.9811 33.811 53.6032C32.3696 52.2253 30.4133 51.4507 28.375 51.4507H20.6875V36.7507H28.375C30.4135 36.7507 32.3699 35.9764 33.811 34.5982C35.2522 33.2201 36.0623 31.3497 36.0623 29.4009V24.5009C36.0623 22.5518 35.2524 20.6814 33.811 19.3035C32.3696 17.9256 30.4133 17.151 28.375 17.151H20.6875V4.90102H143.687V151.9Z" fill="#0A3C53"/>
<path d="M89.875 95.5499C101.428 95.5499 112.508 91.1618 120.678 83.3515C128.847 75.54 133.436 64.946 133.436 53.9011C133.436 42.8562 128.847 32.2613 120.678 24.4507C112.508 16.6401 101.427 12.2522 89.875 12.2522C78.323 12.2522 67.2415 16.6404 59.0723 24.4507C50.903 32.2621 46.3137 42.8562 46.3137 53.9011C46.3263 64.9437 50.9203 75.53 59.0872 83.3375C67.2541 91.1458 78.3265 95.5382 89.8753 95.5502L89.875 95.5499ZM66.8125 83.2344C66.8251 78.97 68.1315 74.8006 70.5716 71.2317C73.0117 67.6617 76.4826 64.8463 80.563 63.1248C83.2319 65.0859 86.5036 66.1502 89.8703 66.1502C93.2358 66.1502 96.5076 65.086 99.1764 63.1248C103.259 64.8442 106.731 67.6606 109.174 71.2294C111.616 74.7983 112.924 78.9689 112.938 83.2344C106.304 88.0479 98.2033 90.6533 89.875 90.6533C81.5467 90.6533 73.4463 88.048 66.8125 83.2344ZM100.125 51.4488C100.125 54.95 98.1711 58.1854 95 59.9362C91.8289 61.6862 87.9211 61.6862 84.75 59.9362C81.5789 58.1851 79.625 54.9497 79.625 51.4488V41.6488C79.625 38.1477 81.5789 34.9123 84.75 33.1615C87.9211 31.4115 91.8289 31.4115 95 33.1615C98.1711 34.9126 100.125 38.148 100.125 41.6488V51.4488ZM89.875 17.1488C99.9534 17.1357 109.633 20.9123 116.824 27.6642C124.014 34.4159 128.139 43.6013 128.307 53.235C128.475 62.8698 124.673 72.1809 117.722 79.1579C116.341 70.6616 110.802 63.3063 102.813 59.3577C104.404 56.9996 105.25 54.2542 105.25 51.4488V41.6488C105.25 36.3966 102.319 31.5436 97.5626 28.9186C92.806 26.2925 86.9442 26.2925 82.1876 28.9186C77.431 31.5436 74.5001 36.3966 74.5001 41.6488V51.4488C74.5001 54.2544 75.3466 56.9996 76.9367 59.3577C68.9485 63.3063 63.4094 70.6616 62.0286 79.1579C55.0779 72.1809 51.2751 62.8698 51.4432 53.235C51.6114 43.6013 55.7365 34.4159 62.9265 27.6642C70.1176 20.9126 79.7965 17.1357 89.8752 17.1488H89.875Z" fill="#0A3C53"/>
<path d="M123.187 100.45H56.5625C55.1474 100.45 54 101.547 54 102.9V117.6C54 118.25 54.27 118.873 54.7504 119.332C55.2309 119.792 55.883 120.05 56.5625 120.05H123.187C123.867 120.05 124.519 119.792 125 119.332C125.48 118.873 125.75 118.25 125.75 117.6V102.9C125.75 102.25 125.48 101.627 125 101.167C124.519 100.708 123.867 100.45 123.187 100.45ZM120.625 115.15H59.125V105.35H120.625V115.15Z" fill="#0A3C53"/>
<path d="M71.9375 124.95H56.5625C55.1474 124.95 54 126.047 54 127.4V142.1C54 142.75 54.27 143.373 54.7504 143.832C55.2309 144.292 55.883 144.55 56.5625 144.55H71.9375C72.617 144.55 73.2691 144.292 73.7496 143.832C74.23 143.373 74.5 142.75 74.5 142.1V127.4C74.5 126.75 74.23 126.127 73.7496 125.667C73.2691 125.208 72.617 124.95 71.9375 124.95ZM69.375 139.65H59.125V129.85H69.375V139.65Z" fill="#0A3C53"/>
<path d="M123.187 124.95H82.1875C80.7724 124.95 79.625 126.047 79.625 127.4V142.1C79.625 142.75 79.895 143.373 80.3754 143.832C80.8559 144.292 81.508 144.55 82.1875 144.55H112.937C114.353 144.55 115.5 143.453 115.5 142.1C115.5 140.747 114.353 139.65 112.937 139.65H84.75V129.85H120.625V142.1C120.625 143.453 121.772 144.55 123.187 144.55C124.603 144.55 125.75 143.453 125.75 142.1V127.4C125.75 126.75 125.48 126.127 125 125.667C124.519 125.208 123.867 124.95 123.187 124.95Z" fill="#0A3C53"/>
</svg>
