<svg width="204" height="190" viewBox="0 0 204 190" fill="none" xmlns="http://www.w3.org/2000/svg">
<path d="M168.3 26.125H156.757C155.698 24.3395 154.077 22.8478 152.035 21.9455L112.8 4.63573C106.091 1.67662 97.9072 1.67662 91.1988 4.63573L51.9696 21.9455C49.925 22.8478 48.3052 24.3375 47.2476 26.125H35.7009C28.6702 26.125 22.9509 31.4518 22.9509 38V123.5C22.9509 130.048 28.6702 135.375 35.7009 135.375H68.8509V144.875H58.6509V149.625H145.351V144.875H135.151V135.375H168.301C175.332 135.375 181.051 130.048 181.051 123.5V38C181.051 31.4518 175.332 26.125 168.301 26.125H168.3ZM54.1474 26.2395L93.3795 8.9297C96.057 7.74961 99.0373 7.12513 101.998 7.12513C104.959 7.12513 107.94 7.74964 110.617 8.9297L149.849 26.2387C151.763 27.0827 152.999 28.9021 152.999 30.8752C152.999 32.8484 151.763 34.6679 149.85 35.5107L110.618 52.8205C105.263 55.1817 98.7357 55.1817 93.3807 52.8205L54.1486 35.5115C52.235 34.6675 50.9985 32.8481 50.9985 30.875C50.9985 28.9018 52.2348 27.0823 54.1474 26.2395V26.2395ZM91.1967 80.8618C94.5505 82.344 98.2831 83.1254 101.999 83.1254C105.715 83.1254 109.447 82.344 112.798 80.8618L139.396 69.1268L149.844 73.7368C151.763 74.5829 152.999 76.4023 152.999 78.3755C152.999 80.3465 151.763 82.1682 149.85 83.0142L110.615 100.321C105.27 102.682 98.7293 102.682 93.3798 100.321L54.1506 83.0142C52.2347 82.1681 50.9985 80.3466 50.9985 78.3755C50.9985 76.4023 52.2348 74.5828 54.1474 73.7368L64.5978 69.1268L91.1967 80.8618ZM110.615 76.5708C105.271 78.9341 98.7296 78.9341 93.3801 76.5708L54.148 59.2618C52.2344 58.4178 50.998 56.5984 50.998 54.6252C50.998 52.6521 52.2343 50.8326 54.1468 49.9865L64.5972 45.3766L91.1959 57.1137C94.552 58.5938 98.2881 59.3752 101.998 59.3752C105.708 59.3752 109.444 58.5938 112.797 57.1147L139.396 45.3776L149.843 49.9876C151.762 50.8326 152.998 52.652 152.998 54.6252C152.998 56.5984 151.762 58.4179 149.849 59.2607L110.615 76.5708ZM35.698 30.8758H45.898C45.898 34.6758 48.2818 38.1788 51.9667 39.8052L58.6398 42.7508L51.9643 45.6963C48.2792 47.3228 45.898 50.8279 45.898 54.6258C45.898 58.4258 48.2818 61.9288 51.9667 63.5552L58.6398 66.5008L51.9608 69.4463C48.2792 71.0728 45.8977 74.5779 45.8977 78.3758C45.8977 82.1736 48.2792 85.6766 51.9664 87.3052L91.1956 104.612C94.5493 106.094 98.2819 106.876 101.998 106.876C105.713 106.876 109.446 106.094 112.797 104.612L152.032 87.3052C155.717 85.6766 158.098 82.1736 158.098 78.3758C158.098 74.5779 155.716 71.0727 152.029 69.4463L145.353 66.5008L152.028 63.5552C155.714 61.9288 158.098 58.4258 158.098 54.6258C158.098 50.8279 155.716 47.3227 152.029 45.6963L145.353 42.7508L152.028 39.8052C155.714 38.1788 158.098 34.6758 158.098 30.8758H168.298C172.516 30.8758 175.948 34.0724 175.948 38.0008V116.376H28.048V38.0008C28.048 34.0724 31.4801 30.8758 35.698 30.8758V30.8758ZM130.048 144.876H73.9479V135.376H130.048V144.876ZM168.298 130.626H35.698C31.4801 130.626 28.048 127.429 28.048 123.501V121.126H175.948V123.501C175.948 127.429 172.516 130.626 168.298 130.626Z" fill="#0A3C53"/>
<path d="M102 40.375C109.031 40.375 114.75 36.1138 114.75 30.875C114.75 25.6362 109.031 21.375 102 21.375C94.9693 21.375 89.25 25.6362 89.25 30.875C89.25 36.1138 94.9693 40.375 102 40.375ZM102 26.125C106.146 26.125 109.65 28.3007 109.65 30.875C109.65 33.4493 106.146 35.625 102 35.625C97.8538 35.625 94.35 33.4493 94.35 30.875C94.35 28.3007 97.8538 26.125 102 26.125Z" fill="#0A3C53"/>
<path d="M119.85 28.5H124.95V33.25H119.85V28.5Z" fill="#0A3C53"/>
<path d="M130.05 28.5H135.15V33.25H130.05V28.5Z" fill="#0A3C53"/>
<path d="M79.05 28.5H84.15V33.25H79.05V28.5Z" fill="#0A3C53"/>
<path d="M68.85 28.5H73.95V33.25H68.85V28.5Z" fill="#0A3C53"/>
</svg>
