<svg width="237" height="216" viewBox="0 0 237 216" fill="none" xmlns="http://www.w3.org/2000/svg">
<path d="M195.525 29.7H182.115C180.885 27.6702 179.001 25.9743 176.629 24.9486L131.047 5.27009C123.253 1.90604 113.745 1.90604 105.952 5.27009L60.3764 24.9486C58.0011 25.9744 56.1192 27.6679 54.8905 29.7H41.476C33.308 29.7 26.6635 35.7557 26.6635 43.2V140.4C26.6635 147.844 33.308 153.9 41.476 153.9H79.9885V164.7H68.1385V170.1H168.864V164.7H157.014V153.9H195.526C203.694 153.9 210.338 147.844 210.338 140.4V43.2C210.338 35.7557 203.694 29.7 195.526 29.7H195.525ZM62.9066 29.8302L108.485 10.1517C111.596 8.81007 115.058 8.10014 118.498 8.10014C121.938 8.10014 125.4 8.81011 128.511 10.1517L174.089 29.8292C176.313 30.7887 177.749 32.8571 177.749 35.1003C177.749 37.3434 176.313 39.4119 174.091 40.37L128.512 60.0486C122.291 62.7329 114.708 62.7329 108.486 60.0486L62.9079 40.371C60.6847 39.4115 59.2483 37.3431 59.2483 35.1C59.2483 32.8568 60.6846 30.7883 62.9066 29.8302V29.8302ZM105.949 91.9271C109.845 93.6121 114.182 94.5005 118.499 94.5005C122.815 94.5005 127.152 93.6121 131.044 91.9271L161.946 78.5863L174.083 83.8271C176.313 84.7889 177.749 86.8573 177.749 89.1006C177.749 91.3413 176.313 93.4122 174.091 94.374L128.509 114.049C122.299 116.733 114.7 116.733 108.485 114.049L62.9103 94.374C60.6845 93.4122 59.2483 91.3414 59.2483 89.1006C59.2483 86.8574 60.6846 84.7889 62.9066 83.8271L75.0474 78.5863L105.949 91.9271ZM128.509 87.0489C122.3 89.7356 114.701 89.7356 108.486 87.0489L62.9072 67.3713C60.684 66.4118 59.2476 64.3434 59.2476 62.1003C59.2476 59.8571 60.6839 57.7886 62.9059 56.8268L75.0467 51.586L105.948 64.9292C109.847 66.6119 114.188 67.5003 118.498 67.5003C122.808 67.5003 127.148 66.6119 131.043 64.9304L161.945 51.5872L174.082 56.828C176.312 57.7886 177.748 59.857 177.748 62.1002C177.748 64.3434 176.312 66.4119 174.09 67.37L128.509 87.0489ZM41.4726 35.1009H53.3226C53.3226 39.4209 56.092 43.4033 60.373 45.2523L68.1256 48.6009L60.3703 51.9495C56.0891 53.7985 53.3226 57.7833 53.3226 62.1009C53.3226 66.4209 56.092 70.4033 60.373 72.2522L68.1256 75.6009L60.3663 78.9495C56.0891 80.7985 53.3223 84.7833 53.3223 89.1009C53.3223 93.4184 56.0891 97.4008 60.3727 99.2522L105.948 118.927C109.844 120.612 114.181 121.501 118.497 121.501C122.814 121.501 127.151 120.612 131.043 118.927L176.625 99.2522C180.906 97.4008 183.673 93.4184 183.673 89.1009C183.673 84.7833 180.906 80.7984 176.622 78.9495L168.866 75.6009L176.621 72.2522C180.903 70.4032 183.673 66.4209 183.673 62.1009C183.673 57.7833 180.906 53.7984 176.622 51.9495L168.866 48.6009L176.621 45.2523C180.903 43.4032 183.673 39.4209 183.673 35.1009H195.523C200.423 35.1009 204.41 38.7349 204.41 43.2009V132.301H32.5851V43.2009C32.5851 38.7349 36.5725 35.1009 41.4726 35.1009V35.1009ZM151.085 164.701H85.9101V153.901H151.085V164.701ZM195.523 148.501H41.4726C36.5725 148.501 32.5851 144.867 32.5851 140.401V137.701H204.41V140.401C204.41 144.867 200.423 148.501 195.523 148.501Z" fill="#0A3C53"/>
<path d="M118.5 45.9C126.668 45.9 133.313 41.0557 133.313 35.1C133.313 29.1443 126.668 24.3 118.5 24.3C110.332 24.3 103.688 29.1443 103.688 35.1C103.688 41.0557 110.332 45.9 118.5 45.9ZM118.5 29.7C123.317 29.7 127.388 32.1734 127.388 35.1C127.388 38.0266 123.317 40.5 118.5 40.5C113.683 40.5 109.613 38.0266 109.613 35.1C109.613 32.1734 113.683 29.7 118.5 29.7Z" fill="#0A3C53"/>
<path d="M139.237 32.4H145.163V37.8H139.237V32.4Z" fill="#0A3C53"/>
<path d="M151.088 32.4H157.013V37.8H151.088V32.4Z" fill="#0A3C53"/>
<path d="M91.8375 32.4H97.7625V37.8H91.8375V32.4Z" fill="#0A3C53"/>
<path d="M79.9875 32.4H85.9125V37.8H79.9875V32.4Z" fill="#0A3C53"/>
</svg>
