<svg width="258" height="226" viewBox="0 0 258 226" fill="none" xmlns="http://www.w3.org/2000/svg">
<path d="M212.85 31.075H198.251C196.912 28.9512 194.862 27.1768 192.279 26.1036L142.659 5.51408C134.174 1.99429 123.824 1.99429 115.34 5.51408L65.7262 26.1036C63.1405 27.1769 61.0918 28.9488 59.7543 31.075H45.1511C36.2593 31.075 29.0261 37.4111 29.0261 45.2V146.9C29.0261 154.689 36.2593 161.025 45.1511 161.025H87.0761V172.325H74.1761V177.975H183.826V172.325H170.926V161.025H212.851C221.743 161.025 228.976 154.689 228.976 146.9V45.2C228.976 37.4111 221.743 31.075 212.851 31.075H212.85ZM68.4806 31.2112L118.098 10.6216C121.484 9.21795 125.253 8.47515 128.998 8.47515C132.742 8.47515 136.512 9.21798 139.898 10.6216L189.515 31.2102C191.935 32.2141 193.499 34.3783 193.499 36.7253C193.499 39.0723 191.935 41.2366 189.516 42.239L139.899 62.8286C133.127 65.6372 124.872 65.6372 118.099 62.8286L68.482 42.24C66.0618 41.2361 64.4981 39.072 64.4981 36.725C64.4981 34.3779 66.0617 32.2137 68.4806 31.2112V31.2112ZM115.337 96.1829C119.579 97.946 124.299 98.8755 128.999 98.8755C133.698 98.8755 138.419 97.946 142.656 96.1829L176.295 82.2245L189.508 87.7079C191.935 88.7144 193.499 90.8785 193.499 93.2256C193.499 95.5701 191.935 97.7369 189.516 98.7432L139.896 119.329C133.136 122.138 124.864 122.138 118.098 119.329L68.4846 98.7432C66.0615 97.7368 64.4981 95.5701 64.4981 93.2256C64.4981 90.8786 66.0617 88.7143 68.4806 87.7079L81.6972 82.2245L115.337 96.1829ZM139.896 91.0789C133.136 93.89 124.864 93.89 118.098 91.0789L68.4813 70.4903C66.0611 69.4864 64.4974 67.3223 64.4974 64.9753C64.4974 62.6283 66.061 60.464 68.4798 59.4576L81.6964 53.9742L115.336 67.9352C119.58 69.6958 124.305 70.6253 128.997 70.6253C133.689 70.6253 138.415 69.6958 142.655 67.9365L176.294 53.9755L189.507 59.4589C191.934 60.464 193.498 62.6282 193.498 64.9752C193.498 67.3223 191.934 69.4865 189.515 70.489L139.896 91.0789ZM45.1474 36.7259H58.0474C58.0474 41.2459 61.0622 45.4127 65.7225 47.3473L74.1621 50.8509L65.7196 54.3546C61.059 56.2892 58.0474 60.4585 58.0474 64.9759C58.0474 69.4959 61.0622 73.6627 65.7225 75.5973L74.1621 79.1009L65.7152 82.6045C61.059 84.5392 58.047 88.7085 58.047 93.2259C58.047 97.7433 61.059 101.91 65.7222 103.847L115.336 124.433C119.577 126.196 124.298 127.126 128.997 127.126C133.696 127.126 138.417 126.196 142.654 124.433L192.275 103.847C196.936 101.91 199.947 97.7433 199.947 93.2259C199.947 88.7085 196.935 84.5391 192.272 82.6045L183.828 79.1009L192.271 75.5973C196.932 73.6626 199.947 69.4959 199.947 64.9759C199.947 60.4585 196.935 56.2891 192.272 54.3546L183.828 50.8509L192.271 47.3473C196.932 45.4126 199.947 41.2459 199.947 36.7259H212.847C218.182 36.7259 222.522 40.5282 222.522 45.2009V138.426H35.4724V45.2009C35.4724 40.5282 39.8131 36.7259 45.1474 36.7259V36.7259ZM164.472 172.326H93.5224V161.026H164.472V172.326ZM212.847 155.376H45.1474C39.8131 155.376 35.4724 151.574 35.4724 146.901V144.076H222.522V146.901C222.522 151.574 218.182 155.376 212.847 155.376Z" fill="#0A3C53"/>
<path d="M129 48.025C137.892 48.025 145.125 42.9565 145.125 36.725C145.125 30.4935 137.892 25.425 129 25.425C120.108 25.425 112.875 30.4935 112.875 36.725C112.875 42.9565 120.108 48.025 129 48.025ZM129 31.075C134.244 31.075 138.675 33.6629 138.675 36.725C138.675 39.7871 134.244 42.375 129 42.375C123.756 42.375 119.325 39.7871 119.325 36.725C119.325 33.6629 123.756 31.075 129 31.075Z" fill="#0A3C53"/>
<path d="M151.575 33.9H158.025V39.55H151.575V33.9Z" fill="#0A3C53"/>
<path d="M164.475 33.9H170.925V39.55H164.475V33.9Z" fill="#0A3C53"/>
<path d="M99.975 33.9H106.425V39.55H99.975V33.9Z" fill="#0A3C53"/>
<path d="M87.075 33.9H93.525V39.55H87.075V33.9Z" fill="#0A3C53"/>
</svg>
