<svg width="232" height="236" viewBox="0 0 232 236" fill="none" xmlns="http://www.w3.org/2000/svg">
<path d="M136.3 41.3C136.3 35.8228 134.161 30.5708 130.354 26.6987C126.548 22.8256 121.385 20.65 116 20.65C110.615 20.65 105.453 22.8256 101.646 26.6987C97.8387 30.5704 95.7 35.8224 95.7 41.3C95.7 46.7776 97.8387 52.0292 101.646 55.9013C105.452 59.7744 110.615 61.95 116 61.95C121.385 61.95 126.547 59.7744 130.354 55.9013C134.161 52.0296 136.3 46.7776 136.3 41.3V41.3ZM116 56.05C112.155 56.05 108.467 54.496 105.746 51.7305C103.027 48.9636 101.5 45.2115 101.5 41.3C101.5 37.3885 103.028 33.6367 105.746 30.8695C108.466 28.1039 112.155 26.55 116 26.55C119.845 26.55 123.533 28.104 126.254 30.8695C128.972 33.6364 130.5 37.3885 130.5 41.3C130.5 45.2115 128.972 48.9633 126.254 51.7305C123.534 54.4961 119.845 56.05 116 56.05Z" fill="#0A3C53"/>
<path d="M36.4538 144.257L114.754 182.607C115.542 182.989 116.459 182.989 117.247 182.607L195.547 144.257C196.612 143.735 197.258 142.608 197.181 141.408C197.105 140.21 196.321 139.177 195.199 138.799L175.537 132.25C176.37 131.722 176.883 130.8 176.901 129.802C176.844 128.587 176.06 127.534 174.929 127.147L155.382 120.362C156.204 119.77 156.665 118.788 156.601 117.766C156.494 116.527 155.636 115.489 154.454 115.17L125.454 107.086L147.087 58.4705H147.089C152.463 47.3815 152.028 34.2936 145.929 23.5998C140.406 13.3682 130.144 6.69916 118.697 5.89979H116C112.668 5.89716 109.351 6.35416 106.14 7.25625C96.406 10.0561 88.4076 17.1308 84.332 26.5499C79.9317 36.53 80.1451 47.9875 84.912 57.7909L106.691 107.027L77.5467 115.05C76.3647 115.369 75.5064 116.407 75.4002 117.646C75.3354 118.668 75.7963 119.65 76.6184 120.242L57.0718 126.879C55.8496 127.298 55.0456 128.489 55.1 129.8C55.0664 130.791 55.5234 131.734 56.3183 132.308L36.7716 138.798C35.6531 139.182 34.8763 140.219 34.8064 141.417C34.7364 142.616 35.3877 143.739 36.4532 144.255L36.4538 144.257ZM89.6382 28.9707C93.0015 21.1507 99.6301 15.2729 107.706 12.9523C110.407 12.1898 113.197 11.8026 116 11.8013H118.291C127.813 12.4624 136.344 18.0253 140.911 26.5513C146.047 35.6134 146.373 46.6916 141.781 56.0513L116 113.784L90.1612 55.286C86.1217 47.0364 85.9302 37.3793 89.6382 28.9717V28.9707ZM109.097 112.515L113.36 122.161L113.361 122.16C113.827 123.218 114.86 123.898 116 123.901C117.139 123.898 118.172 123.218 118.638 122.16L122.93 112.513L145.26 118.708L116 132.456L86.7381 118.71L109.097 112.515ZM84.0997 123.901L114.666 138.268C115.438 138.631 116.329 138.631 117.102 138.268L147.9 123.901L166.141 130.096L116 153.106L65.9737 130.215L84.0997 123.901ZM63.7997 135.701L114.608 158.947C115.364 159.293 116.229 159.293 116.986 158.947L167.592 135.789L186.355 142.043L115.999 176.678L45.4116 142.104L63.7997 135.701Z" fill="#0A3C53"/>
</svg>
