<svg width="73" height="74" xmlns="http://www.w3.org/2000/svg" xmlns:xlink="http://www.w3.org/1999/xlink" xml:space="preserve" overflow="hidden"><g transform="translate(-404 -295)"><path d="M64.5791 39.6968C61.5284 39.9797 58.435 40.4557 55.1606 40.9591 54.747 41.023 54.3242 41.0838 53.9075 41.1461 53.0147 36.8909 50.6255 34.8393 46.1466 34.1853L42.2381 33.6652 42.2305 31.5025C42.343 31.3748 42.4586 31.2638 42.5712 31.1299 43.0076 31.6676 43.6741 31.9652 44.3658 31.9314 45.0548 31.8804 45.6773 31.5013 46.0387 30.9125 46.3988 31.1126 46.8094 31.2035 47.2204 31.174 48.1804 31.102 48.9802 30.4103 49.1898 29.4707 50.5115 29.1696 51.4138 27.9465 51.3114 26.5948 51.291 26.3254 51.2294 26.0608 51.1289 25.8101 51.5125 25.4887 51.7726 25.0442 51.865 24.5523 52.7272 24.1904 53.263 23.3194 53.1972 22.3867 53.1653 21.9523 53.0007 21.5382 52.7258 21.2004 53.2203 20.2501 53.3166 19.1421 52.9934 18.1207 53.3015 17.7994 53.5033 17.3911 53.5714 16.9512 54.7079 16.1685 54.9947 14.6126 54.212 13.476 53.9002 13.0233 53.4479 12.686 52.925 12.5165 52.7292 11.6927 52.0791 11.0539 51.2521 10.8724 51.076 10.4113 50.7497 10.0229 50.3259 9.76983 50.2769 9.54064 50.2123 9.31503 50.1328 9.09458 50.2487 8.78708 50.2975 8.4583 50.2757 8.13038 50.1924 7.03702 49.3898 6.13361 48.3138 5.92213 47.8956 5.21529 47.1114 4.80818 46.2927 4.87275 46.2453 4.87585 46.1981 4.88093 46.1512 4.88796 45.7046 4.26751 44.9667 3.92505 44.2045 3.98458 44.1893 3.98458 44.2198 3.98154 44.2045 3.98458 43.4375 3.12234 42.3141 2.66453 41.1629 2.7451 41.0697 2.75287 40.9768 2.76454 40.8846 2.78008 40.3599 1.69962 39.0587 1.24904 37.9783 1.77368 37.3819 2.06327 36.9502 2.60907 36.8057 3.2561 36.7166 3.28769 36.6297 3.32529 36.5456 3.36865 36.1346 3.04987 35.6193 2.89635 35.1008 2.93825 34.6557 2.97087 34.2316 3.14092 33.8872 3.42492 33.5632 3.32295 33.2309 3.24967 32.8941 3.20592 32.6039 3.09299 32.2923 3.04573 31.9816 3.06752 31.821 3.07337 31.6638 3.11603 31.5223 3.19223 30.7701 3.27795 30.044 3.5193 29.3901 3.90094 29.0379 3.72528 28.6452 3.64654 28.2525 3.67281 27.4366 3.73872 26.7253 4.25359 26.4078 5.0081 25.5828 5.45532 25.031 6.28013 24.9325 7.21331 24.8565 7.21331 24.7805 7.21331 24.7044 7.2194 23.2953 7.32784 22.2399 8.55666 22.3456 9.96602 22.3794 10.3786 22.5198 10.7754 22.7532 11.1173 22.7323 11.1747 22.7125 11.2325 22.6939 11.2907 21.7498 11.4433 20.9751 12.1201 20.697 13.0351 19.3051 13.7931 18.4366 15.2492 18.431 16.8341 18.4314 17.3116 18.5121 17.7856 18.6698 18.2363 18.2853 18.7238 18.0961 19.337 18.139 19.9564 18.2401 21.2923 19.3542 22.3242 20.694 22.3228 20.7396 22.4658 20.8004 22.6118 20.8628 22.7593 20.5228 23.2341 20.3607 23.8134 20.405 24.3957 20.4354 24.7848 20.5613 25.1604 20.7715 25.4892 20.4929 25.9401 20.3645 26.4678 20.405 26.9963 20.5001 28.2193 21.4543 29.2003 22.6741 29.3293 22.5662 29.6074 22.522 29.9063 22.5448 30.2038 22.6304 31.2908 23.5364 32.13 24.6269 32.1322 24.6801 32.1322 24.7333 32.1306 24.785 32.1276 25.0288 32.1077 25.2664 32.0405 25.4846 31.9299 26.4191 32.2928 27.4803 32.0549 28.1704 31.3276 28.4073 31.2712 28.6317 31.1712 28.832 31.0326 29.0309 30.8861 29.2609 30.7872 29.5042 30.7436 29.6329 30.7315 29.7603 30.7071 29.8844 30.6706 30.1125 30.9566 30.3391 31.2288 30.5703 31.4904L30.5703 33.6849 26.0671 34.2598C21.6992 34.9305 19.3298 36.9152 18.4173 40.9773L17.8713 40.8998C14.5164 40.4207 11.3469 39.969 8.42238 39.6983L7.5555 39.6177 12.2032 57.2715C12.1576 57.268 12.1119 57.2675 12.0663 57.27 11.2344 57.4328 9.19648 60.3923 8.89992 61.647 8.7319 62.0822 8.85476 62.5761 9.20713 62.8819 9.4292 63.1146 9.56866 63.4138 9.60406 63.7336 9.6284 63.8507 9.63752 63.9678 9.64969 64.0803 9.65086 64.8461 10.0679 65.5509 10.7386 65.9205 10.998 66.0717 11.2095 66.2931 11.3485 66.5593 11.7589 67.2593 12.4235 67.774 13.2039 67.9965 13.825 68.2168 14.4733 68.3513 15.1308 68.3964L15.4912 69.7652C15.4912 69.7652 20.0461 70.2245 21.7616 70.4161 26.9026 71.0616 32.0807 71.3664 37.2619 71.3286 41.7967 71.3956 46.3301 71.1196 50.8232 70.5028 52.5509 70.2884 54.4778 70.0465 57.089 69.8047L57.5118 69.7667 57.8723 68.398C58.5298 68.3523 59.1781 68.2172 59.7992 67.9965 60.5795 67.774 61.2441 67.2593 61.6546 66.5593 61.7932 66.2933 62.004 66.0719 62.2629 65.9205 62.9342 65.5513 63.3519 64.8465 63.3534 64.0803 63.3655 63.9678 63.3746 63.8522 63.399 63.732 63.4344 63.4123 63.5738 63.1131 63.7959 62.8804 64.1476 62.5748 64.2704 62.0818 64.1031 61.647 63.8066 60.3923 61.7687 57.4343 60.9368 57.27 60.8912 57.267 60.8454 57.267 60.7999 57.27L65.446 39.6177ZM60.5946 58.4243C61.6275 59.4346 62.4278 60.6578 62.9397 62.0089 62.5368 62.4127 62.2772 62.9372 62.2006 63.5024 62.1702 63.6575 62.1549 63.8096 62.1397 63.9586 62.0971 64.4027 62.0774 64.605 61.6287 64.8803 61.2041 65.1308 60.8543 65.4905 60.6159 65.922 60.4121 66.2536 60.2509 66.5182 59.3612 66.8589 57.435 67.4118 55.3825 67.3351 53.5029 66.6399 52.7988 66.3023 52.709 66.1182 52.7045 66.1182 52.7292 66.0204 52.7721 65.9281 52.8307 65.846 53.1455 65.3092 52.6132 64.9259 52.3851 64.7632 52.2406 64.6598 51.903 64.4179 51.8695 64.275 51.8464 64.0944 51.9088 63.9133 52.0384 63.7853 52.1174 63.694 52.2011 63.6119 52.2817 63.5328 52.5389 63.3156 52.7376 63.0375 52.8596 62.7237 52.9334 62.441 52.9334 62.1441 52.8596 61.8614 52.849 61.8067 52.8338 61.7489 52.8231 61.7823 52.8976 61.4903 53.509 61.2774 53.8375 61.1634 53.95 61.1238 54.0504 61.0888 54.1265 61.0569 54.6014 60.8709 55.0535 60.631 55.4739 60.3421 55.6154 60.2478 55.7583 60.152 55.9621 60.041 56.7256 59.7899 57.5332 59.7008 58.3331 59.7794L58.5156 59.7794C59.1009 59.6974 59.6376 59.4088 60.0288 58.9658 60.2326 58.8024 60.4214 58.6212 60.593 58.4243ZM59.2258 58.0487C59.0189 58.2595 58.7771 58.4329 58.511 58.5612L58.3285 58.5612C57.3279 58.4607 56.3177 58.6015 55.3827 58.9718 55.1378 59.1041 54.9675 59.2182 54.7971 59.3308 54.4422 59.5756 54.0599 59.7782 53.658 59.9345L53.439 60.0136C52.8931 60.2022 51.8787 60.555 51.6445 61.4858 51.6059 61.6865 51.6127 61.8933 51.6642 62.0911 51.685 62.1779 51.6972 62.2665 51.7007 62.3557 51.6241 62.4702 51.5326 62.5741 51.4285 62.6644 51.3236 62.7678 51.2156 62.8773 51.1137 62.9944 50.7274 63.4118 50.5675 63.9907 50.6848 64.5472 50.834 65.0162 51.1471 65.4157 51.5669 65.6726 51.4728 65.9254 51.4632 66.2018 51.5395 66.4604 51.687 66.944 52.1174 67.3258 52.9767 67.7379 54.13 68.1997 55.3616 68.4347 56.6039 68.4299L56.5507 68.6322C54.1371 68.8618 52.3151 69.0884 50.6711 69.2937 46.2279 69.9039 41.7449 70.1769 37.2604 70.1104 32.1244 70.1476 26.9916 69.8453 21.8954 69.2055 20.0818 68.9981 18.2664 68.807 16.4493 68.6322L16.3961 68.4299C17.6384 68.4347 18.87 68.1997 20.0233 67.7379 20.8826 67.3258 21.313 66.944 21.4605 66.4604 21.5359 66.2021 21.5258 65.9263 21.4316 65.6741 21.8513 65.4172 22.1645 65.0177 22.3137 64.5487 22.4326 63.9922 22.2738 63.4126 21.8878 62.9944 21.7873 62.8798 21.6818 62.7697 21.5715 62.6644 21.4691 62.5751 21.3782 62.4734 21.3008 62.3618 21.3021 62.2705 21.3138 62.1797 21.3358 62.0911 21.3884 61.8925 21.3957 61.6845 21.3571 61.4827 21.1213 60.555 20.1069 60.2022 19.561 60.0136L19.342 59.9345C18.9396 59.7783 18.5568 59.5757 18.2013 59.3308 18.0131 59.2017 17.8187 59.0819 17.6189 58.9718 16.6834 58.6013 15.6726 58.4605 14.6715 58.5612L14.4905 58.5612C14.2232 58.4335 13.9802 58.2601 13.7727 58.0487L13.6327 57.9301 9.17671 40.9925C11.8306 41.2663 14.6897 41.6739 17.6979 42.1028 24.168 43.1718 30.7046 43.7897 37.2604 43.9521 43.3259 43.8272 49.3724 43.2287 55.3446 42.1621 58.289 41.7089 61.0858 41.28 63.8248 40.9941L59.3673 57.9285 59.2273 58.0472ZM12.3841 65.922C12.1457 65.4905 11.7959 65.1308 11.3713 64.8803 10.9226 64.6065 10.9029 64.4027 10.8588 63.9586 10.8455 63.8057 10.8252 63.6535 10.7979 63.5024 10.7217 62.9374 10.4626 62.4129 10.0603 62.0089 10.5657 60.6958 11.319 59.4923 12.2792 58.4639 12.5366 58.5908 12.7706 58.7605 12.9712 58.9658 13.3626 59.4082 13.8993 59.6963 14.4844 59.7779L14.6669 59.7779C15.4669 59.6997 16.2745 59.7893 17.0379 60.041 17.2417 60.152 17.3846 60.2478 17.5261 60.3421 17.9465 60.631 18.3986 60.8709 18.8735 61.0569 18.9511 61.0888 19.05 61.1238 19.1625 61.1634 19.491 61.2774 20.1024 61.4903 20.1663 61.7078 20.161 61.759 20.1524 61.8098 20.1404 61.8599 20.0665 62.1426 20.0665 62.4395 20.1404 62.7222 20.2621 63.0366 20.4608 63.3153 20.7183 63.5328 20.7989 63.6119 20.8826 63.694 20.9616 63.7853 21.0908 63.9134 21.1527 64.0946 21.1289 64.275 21.097 64.4164 20.7594 64.6598 20.6149 64.7617 20.3868 64.9259 19.8545 65.3092 20.1693 65.846 20.2203 65.9272 20.2631 66.0133 20.297 66.103 20.294 66.1106 20.2149 66.2962 19.4971 66.6399 17.6175 67.3348 15.5651 67.4116 13.6388 66.8589 12.7507 66.5182 12.5895 66.2536 12.3841 65.922ZM46.1786 35.4202C49.9761 36.0209 51.9501 37.6939 52.7182 41.3241 48.2231 42.0513 43.6875 42.5014 39.1371 42.6715 41.1914 39.9863 43.5549 37.5525 46.1786 35.4202ZM29.0662 29.5848C28.7564 29.675 28.4625 29.8125 28.1947 29.9924 28.1396 30.0264 28.0839 30.0594 28.0274 30.0912L27.7294 29.9513 27.4298 30.3285C27.0413 30.8706 26.3063 31.032 25.7264 30.7026L25.4025 30.5353 25.1029 30.7421C24.9833 30.8334 24.8416 30.8912 24.6923 30.9094 24.2147 30.9402 23.7997 30.5846 23.7569 30.1079 23.7458 29.8996 23.8107 29.6942 23.9394 29.53L24.2254 29.1483 23.9227 28.7803C23.8393 28.6787 23.7669 28.5686 23.7067 28.4518L23.4725 28.0974 23.0589 28.14C22.3194 28.1967 21.6739 27.6432 21.6173 26.9037 21.6172 26.9031 21.6172 26.9026 21.6171 26.902 21.5919 26.5311 21.7231 26.1665 21.9791 25.8968L22.3547 25.4876 21.9821 25.077C21.4918 24.591 21.4883 23.7995 21.9743 23.3091 21.9853 23.298 21.9965 23.2871 22.008 23.2764L22.3045 22.9722 22.119 22.5874C21.9456 22.2427 21.8168 21.8773 21.7358 21.5L21.611 20.878 20.7928 21.1C20.068 21.1707 19.4232 20.6404 19.3526 19.9156 19.3117 19.496 19.4739 19.0821 19.7891 18.8021L20.1054 18.504 19.9275 18.1086C19.7436 17.7077 19.6476 17.2721 19.6461 16.8311 19.6519 15.6136 20.3641 14.5103 21.4711 14.0038L21.754 13.8746 21.8133 13.5674C21.9074 12.9902 22.3731 12.5456 22.9539 12.4784L23.6687 12.5241 23.7661 12.007C23.813 11.7549 23.8912 11.5097 23.9988 11.277L24.1615 10.9211 23.906 10.6245C23.7097 10.4184 23.5868 10.1533 23.5562 9.87021 23.5003 9.12981 24.0553 8.48432 24.7957 8.42846 24.7957 8.42846 24.7957 8.42846 24.7957 8.42846 24.9899 8.41432 25.1848 8.4461 25.3645 8.52123L26.4017 8.91208 26.1355 7.62698C26.0852 6.92715 26.4874 6.27334 27.1347 6.00273L27.4054 5.88867 27.483 5.60427C27.5863 5.2044 27.932 4.91421 28.3438 4.88188 28.5883 4.86377 28.8304 4.94118 29.019 5.09783L29.3734 5.37615 29.7429 5.11608C30.3126 4.72113 30.9717 4.47442 31.6607 4.39825L31.8447 4.34806C32.0551 4.24153 32.3045 4.24609 32.5109 4.36023L32.666 4.40129C33.0548 4.44244 33.4358 4.53871 33.7975 4.68721L34.2188 4.86971 34.5077 4.51231C34.8232 4.10118 35.4123 4.02366 35.8234 4.33916 35.8925 4.39217 35.9538 4.45455 36.0057 4.52448L36.3935 4.99594 36.8635 4.60508C36.9879 4.49462 37.1371 4.41584 37.2984 4.37544L37.3593 4.39521 37.9646 4.19446 37.9646 3.75646C37.9516 3.22494 38.372 2.78356 38.9035 2.77061 39.3937 2.75867 39.8145 3.11704 39.8808 3.60285L39.9964 4.30548 40.6732 4.08192C41.7045 3.71822 42.8509 4.10557 43.4502 5.02027L43.6996 5.38375 44.3171 5.19213C44.7483 5.15761 45.1477 5.42094 45.2859 5.83088L45.5109 6.4164 46.0889 6.17306C46.1817 6.12838 46.2806 6.09764 46.3824 6.08181 46.8064 6.05457 47.1984 6.30769 47.3481 6.70535L47.4926 7.05971 47.8728 7.08404C48.4962 7.11126 49.0033 7.59557 49.059 8.21706 49.068 8.43014 49.0214 8.64189 48.9237 8.83148L48.8096 9.07785 48.9161 9.32727C49.0438 9.63264 49.1342 9.9523 49.1853 10.2793L49.2415 10.6185 49.564 10.7447C49.8914 10.8717 50.1243 11.1663 50.1723 11.5142L50.2483 12.0344 50.7761 12.0344C51.254 12.0194 51.6725 12.3529 51.7646 12.8221L51.7433 13.5369 52.271 13.6069C52.9303 13.6772 53.432 14.2306 53.4375 14.8935 53.4302 15.3864 53.1486 15.834 52.7075 16.0539L52.376 16.2273 52.3805 16.6014C52.3858 16.9339 52.2183 17.2453 51.938 17.4242L51.5076 17.7086 51.7159 18.18C52.123 19.0849 52.0249 20.1371 51.4574 20.951L51.1274 21.4301 51.5897 21.7814C52.0165 22.0871 52.1146 22.6808 51.8089 23.1076 51.6597 23.316 51.4325 23.4553 51.1791 23.4938L50.6681 23.5927 50.6848 24.1113C50.698 24.5132 50.4604 24.8812 50.0886 25.0344L49.3997 25.3264 49.8255 25.9424C49.9822 26.1605 50.0768 26.417 50.0993 26.6845 50.1549 27.526 49.5179 28.2532 48.6765 28.3089 48.6545 28.3104 48.6324 28.3113 48.6104 28.3118L48.0051 28.3346 48.0264 28.9399C48.0511 29.466 47.6541 29.9168 47.1291 29.9589 46.831 29.9751 46.5422 29.8521 46.3474 29.6258L45.9596 29.4038 45.225 29.5255 45.1383 29.9315C45.0482 30.4478 44.5566 30.7934 44.0403 30.7033 43.7286 30.6489 43.4646 30.4427 43.3361 30.1536 45.5231 27.3897 46.823 24.0291 47.0652 20.513 47.0208 19.4892 46.9121 18.4693 46.7398 17.4592L46.5938 16.5816 45.8288 17.0379C42.8467 19.1339 38.7949 18.81 36.1837 16.2668 35.4808 15.6284 34.8959 14.8711 34.456 14.0297 33.8839 12.9019 32.7995 12.1226 31.5482 11.9401 30.3119 11.7297 29.0509 12.1376 28.1719 13.032 26.4789 15.1474 25.6169 17.8083 25.7477 20.5145 25.9601 23.7938 27.1121 26.9427 29.0662 29.5848ZM42.2214 29.6076C41.7515 30.2335 41.2398 30.827 40.6899 31.3839 39.6013 32.6728 38.073 33.5117 36.4011 33.7382 34.733 33.5085 33.209 32.6693 32.123 31.3824 31.5425 30.7952 31.0043 30.1675 30.5125 29.5042 30.2556 29.1629 30.0091 28.814 29.7734 28.4578 29.1593 27.5208 28.6252 26.5339 28.1765 25.5074 28.0776 25.2793 27.9727 25.0481 27.8845 24.8185 27.8145 24.636 27.7552 24.4565 27.6913 24.2755 27.596 24.0038 27.5083 23.7294 27.4282 23.4528 27.3826 23.2926 27.3405 23.1339 27.302 22.9767 27.2305 22.6866 27.1697 22.3939 27.1195 22.0992 27.0982 21.9684 27.0708 21.8361 27.0541 21.7084 26.9974 21.3129 26.9669 20.9141 26.9629 20.5145 26.9639 19.8249 27.0142 19.1362 27.1134 18.4538 27.1636 18.107 27.2549 17.7938 27.3324 17.4698 27.3978 17.1961 27.448 16.9132 27.5301 16.6562 27.6614 16.2742 27.819 15.9017 28.0016 15.5414 28.0715 15.3969 28.1293 15.2433 28.2054 15.1064 28.4167 14.7364 28.6589 14.3849 28.9293 14.0555 28.9932 13.9749 29.051 13.8898 29.1179 13.8137 29.7141 13.2443 30.5468 12.9944 31.3581 13.1415 32.2226 13.2637 32.9734 13.7994 33.3701 14.5772 33.8764 15.5507 34.5509 16.4271 35.3624 17.1656 38.1104 19.8669 42.3169 20.4175 45.6676 18.5146 45.698 18.7275 45.7269 18.9678 45.7543 19.2112 45.7923 19.64 45.8486 20.0537 45.8486 20.5145 45.8449 20.9166 45.8144 21.318 45.7573 21.716 45.7421 21.8376 45.7147 21.9654 45.6934 22.0916 45.6161 22.5483 45.5131 23.0002 45.3847 23.4452 45.301 23.7368 45.2087 24.0259 45.1079 24.312 45.0486 24.4809 44.9923 24.6497 44.9254 24.82 44.8296 25.0709 44.7186 25.3219 44.6076 25.5713 43.9717 27.0052 43.1704 28.3598 42.2199 29.6076ZM31.7854 34.7541 31.7854 32.739C33.0031 33.9968 34.6272 34.7824 36.3692 34.9564L36.4346 34.9564C38.1758 34.785 39.7999 34.0021 41.0184 32.7466L41.0275 34.7313 44.4692 35.189C41.9604 37.5127 39.6414 40.0332 37.5342 42.7263 37.4399 42.7263 37.3517 42.7354 37.2604 42.7354 36.4118 42.7354 35.5571 42.7172 34.7009 42.6868 32.5904 40.0346 30.273 37.554 27.7704 35.2681ZM26.0428 35.4947C28.6533 37.581 31.0091 39.9674 33.0614 42.6046 28.5004 42.3506 23.8969 41.7499 19.6172 41.1446 20.4081 37.7228 22.3593 36.1061 26.0428 35.4947Z" transform="matrix(1 0 0 1.0137 404 295)"/></g></svg>